<svg width="55" height="54" viewBox="0 0 55 54" fill="none" xmlns="http://www.w3.org/2000/svg">
<path d="M27.6667 3.375C22.9941 3.375 18.4265 4.76058 14.5414 7.35653C10.6562 9.95248 7.62816 13.6422 5.84004 17.9591C4.05192 22.276 3.58407 27.0262 4.49565 31.609C5.40722 36.1918 7.65728 40.4014 10.9613 43.7054C14.2653 47.0094 18.4749 49.2595 23.0577 50.1711C27.6405 51.0826 32.3907 50.6148 36.7076 48.8267C41.0245 47.0385 44.7142 44.0105 47.3102 40.1253C49.9061 36.2402 51.2917 31.6726 51.2917 27C51.2917 20.7343 48.8026 14.7252 44.3721 10.2946C39.9415 5.86406 33.9324 3.375 27.6667 3.375ZM23.4311 7.20563C23.7011 7.72875 23.9711 8.21813 24.2579 8.72438C25.5404 11.0194 26.6711 12.9938 25.9454 15.6431C25.6586 16.7906 24.2579 17.3306 22.3342 18.0056C20.9542 18.3316 19.6992 19.0529 18.7229 20.0813C18.0622 21.0625 17.6507 22.1902 17.5243 23.3664C17.3978 24.5426 17.5602 25.732 17.9973 26.8313C18.318 28.08 18.5036 28.8563 18.1661 29.3625C17.8286 29.8688 17.9129 29.6663 17.0186 29.7844C16.0125 29.8475 15.0339 30.1385 14.1568 30.6355C13.2798 31.1325 12.5272 31.8225 11.9561 32.6531C10.9824 34.0662 10.4374 35.7303 10.3867 37.4456C8.45211 34.3044 7.4242 30.6892 7.4167 27C7.41846 22.3663 9.0093 17.8734 11.9237 14.2711C14.8382 10.6687 18.8999 8.17483 23.4311 7.20563ZM14.0148 41.9175C13.7448 40.0106 13.3229 36.5681 14.6729 34.7625C14.981 34.2824 15.4056 33.8882 15.9073 33.6167C16.409 33.3452 16.9713 33.2053 17.5417 33.21C18.2121 33.1694 18.8645 32.9766 19.4493 32.6462C20.0341 32.3158 20.5359 31.8565 20.9167 31.3031C21.3471 30.5028 21.5946 29.6169 21.6413 28.7094C21.688 27.8019 21.5327 26.8953 21.1867 26.055C20.7479 24.3675 20.5117 23.2369 21.3554 22.1063C21.9982 21.7051 22.698 21.4036 23.4311 21.2119C25.5742 20.4862 28.4936 19.5244 29.2361 16.4194C30.1811 12.4875 28.5611 9.66937 27.1267 7.05375L27.0423 6.75H27.6667C31.4862 6.75127 35.2263 7.83996 38.4498 9.88875C36.6752 12.6355 34.5413 15.1326 32.1048 17.3138C29.7761 19.4231 31.4804 21.8531 32.6111 23.4563C33.2279 24.1174 33.7055 24.8958 34.0157 25.7452C34.3259 26.5945 34.4622 27.4976 34.4167 28.4006C34.295 28.8711 34.2962 29.365 34.4203 29.8348C34.5444 30.3047 34.7872 30.7348 35.1254 31.0838C35.6367 31.4287 36.2282 31.6363 36.8429 31.6865C37.4576 31.7368 38.0749 31.628 38.6354 31.3706C39.0392 31.2557 39.451 31.1711 39.8673 31.1175C40.0529 31.7588 39.6986 32.2819 38.1798 33.6825C36.6611 35.0831 34.6529 36.9731 35.2604 39.9938C35.4757 40.8625 35.8728 41.6756 36.4255 42.3796C36.9782 43.0835 37.6739 43.6622 38.4667 44.0775C34.7241 46.4667 30.2961 47.5505 25.8731 47.1598C21.4501 46.769 17.2806 44.9258 14.0148 41.9175ZM41.3523 41.9175L40.6942 41.4956C39.5129 40.7869 38.7873 40.2806 38.6017 39.3525C38.4161 38.4244 39.0236 37.5806 40.5255 36.18C42.0273 34.7794 44.1198 32.805 43.0061 29.8181C41.9767 27.1013 39.1417 27.7931 37.8592 28.1306C37.8193 25.7158 36.9426 23.3897 35.3786 21.5494C34.956 21.0425 34.6145 20.4732 34.3661 19.8619C36.9542 17.5446 39.2239 14.8947 41.1161 11.9813C43.226 13.8579 44.9182 16.1567 46.0833 18.7288C47.2483 21.301 47.8602 24.0891 47.8793 26.9128C47.8984 29.7364 47.3242 32.5326 46.1941 35.1203C45.0639 37.7079 43.4029 40.0294 41.3186 41.9344L41.3523 41.9175Z" fill="#E53FB6"/>
</svg>
